<?xml version="1.0" encoding="utf-8"?>
<!-- Generator: Adobe Illustrator 15.1.0, SVG Export Plug-In . SVG Version: 6.00 Build 0)  -->
<!DOCTYPE svg PUBLIC "-//W3C//DTD SVG 1.1//EN" "http://www.w3.org/Graphics/SVG/1.1/DTD/svg11.dtd">
<svg version="1.1" id="Capa_1" xmlns="http://www.w3.org/2000/svg" xmlns:xlink="http://www.w3.org/1999/xlink" x="0px" y="0px"
	 width="512px" height="512px" viewBox="0 0 512 512" enable-background="new 0 0 512 512" xml:space="preserve">
<path fill="#C1B0B5" d="M323.732,442.997H188.274l-28.27,40h191.998L323.732,442.997z"/>
<path fill="#F3EFF0" d="M256.003,98.722c-0.1,0.07-131.368,101.039-179.998,138.438v205.838h359.996V237.16L256.003,98.722z"/>
<path fill="#FF7B79" d="M256.003,98.722C255.954,98.756,58.167,250.879,58.166,250.88c-5.77,4.4-13.18,6.75-21.16,5.97
	c-15.08-1.46-23.319-10.069-26.209-22.85c-2.83-12.51,2.17-24.109,11.05-30.88L237.843,37.122c10.712-8.161,25.6-8.167,36.319,0
	C414.241,144.776,253.686,21.374,490.16,203.12c7.2,5.48,11.84,14.141,11.84,23.88c0,16.57-13.43,30-29.999,30
	c-6.83,0-13.12-2.28-18.16-6.12C445.316,244.324,264.9,105.566,256.003,98.722z"/>
<path fill="#D8EC84" d="M436.001,363.158c24.14,1.92,43.239,21.08,45.529,45.129c12.16,6.86,20.47,19.75,20.47,34.71
	c0,22.09-17.909,40-39.999,40c-22.39,0-62.699,0-109.999,0c-16.57,0-30-13.431-30-30c0-13.04,8.403-24.116,20.18-28.22
	c-1.172-23.438,17.608-41.779,39.82-41.779c3.199,0,6.27,0.47,9.249,1.18C401.844,369.238,419.063,361.747,436.001,363.158z"/>
<path fill="#C1B0B5" d="M436.001,31.003v130.458l-0.021,0.021l-59.979-46.1V31.003H436.001z"/>
<path fill="#FF7B79" d="M296.002,237c23.681,0,40,20.07,40,43.84c0,32.88-32.55,54.649-79.999,96.159
	c-47.449-41.51-79.999-63.279-79.999-96.159c0-23.77,16.32-43.84,40-43.84c30.4,0,40,35,40,35S265.604,237,296.002,237z"/>
<path fill="#D8EC84" d="M190.004,452.997c0,16.569-13.43,30-30,30c-47.299,0-87.609,0-109.999,0c-22.09,0-40-17.91-40-40
	c0-14.96,8.31-27.85,20.47-34.71c2.29-24.049,21.39-43.209,45.529-45.129c16.957-1.413,34.169,6.094,44.75,21.02
	c2.98-0.71,6.05-1.18,9.25-1.18c22.101,0,40,17.919,40,39.999c0,0.61-0.15,1.181-0.18,1.78
	C181.611,428.886,190.004,439.969,190.004,452.997L190.004,452.997z"/>
</svg>
